<mxfile host="drawio-plugin" modified="2022-08-17T08:26:46.488Z" agent="5.0 (Macintosh; Intel Mac OS X 11_6_8) AppleWebKit/537.36 (KHTML, like Gecko) Chrome/89.0.4389.114 Safari/537.36" version="15.5.4" etag="8wKsrVJXqntgl0ikaYfp" type="embed"><diagram id="zv9n22gNOiZsJU2BqhWM" name="Page-1"><mxGraphModel dx="803" dy="715" grid="1" gridSize="10" guides="1" tooltips="1" connect="1" arrows="1" fold="1" page="1" pageScale="1" pageWidth="1100" pageHeight="850" math="0" shadow="0"><root><mxCell id="0"/><mxCell id="1" parent="0"/></root></mxGraphModel></diagram></mxfile>